HIERARCHY
ROOT Hips
{
    OFFSET 9.072121620178223 88.17460632324219 -17.733535766601562
    CHANNELS 6 Xposition Yposition Zposition Zrotation Xrotation Yrotation
    JOINT RightUpLeg
    {
        OFFSET -9.072121620178223 0.0 0.0
        CHANNELS 3 Zrotation Xrotation Yrotation
        JOINT RightLeg
        {
            OFFSET 0.0 -43.84076690673828 0.0
            CHANNELS 3 Zrotation Xrotation Yrotation
            JOINT RightFoot
            {
                OFFSET 0.0 -44.333839416503906 0.0
                CHANNELS 3 Zrotation Xrotation Yrotation
                End Site
                {
                    OFFSET 0.0 0.0 17.733535766601562
                }
            }
        }
    }
    JOINT LeftUpLeg
    {
        OFFSET 9.072121620178223 0.0 0.0
        CHANNELS 3 Zrotation Xrotation Yrotation
        JOINT LeftLeg
        {
            OFFSET 0.0 -43.84076690673828 0.0
            CHANNELS 3 Zrotation Xrotation Yrotation
            JOINT LeftFoot
            {
                OFFSET 0.0 -44.333839416503906 0.0
                CHANNELS 3 Zrotation Xrotation Yrotation
                End Site
                {
                    OFFSET 0.0 0.0 17.733535766601562
                }
            }
        }
    }
    JOINT Spine
    {
        OFFSET 0.0 22.50390625 0.0
        CHANNELS 3 Zrotation Xrotation Yrotation
        JOINT Spine3
        {
            OFFSET 0.0 23.501981735229492 0.0
            CHANNELS 3 Zrotation Xrotation Yrotation
            JOINT Neck
            {
                OFFSET 0.0 9.648998260498047 0.0
                CHANNELS 3 Zrotation Xrotation Yrotation
                End Site
                {
                    OFFSET 0.0 3.8595993518829346 0.0
                }
            }
            JOINT LeftArm
            {
                OFFSET 11.219406127929688 0.0 0.0
                CHANNELS 3 Zrotation Xrotation Yrotation
                JOINT LeftForeArm
                {
                    OFFSET 26.45674705505371 0.0 0.0
                    CHANNELS 3 Zrotation Xrotation Yrotation
                    JOINT LeftHand
                    {
                        OFFSET 19.199024200439453 0.0 0.0
                        CHANNELS 3 Zrotation Xrotation Yrotation
                        End Site
                        {
                            OFFSET 7.679609775543213 0.0 0.0
                        }
                    }
                }
            }
            JOINT RightArm
            {
                OFFSET -11.219406127929688 0.0 0.0
                CHANNELS 3 Zrotation Xrotation Yrotation
                JOINT RightForeArm
                {
                    OFFSET -26.45674705505371 0.0 0.0
                    CHANNELS 3 Zrotation Xrotation Yrotation
                    JOINT RightHand
                    {
                        OFFSET -19.199024200439453 0.0 0.0
                        CHANNELS 3 Zrotation Xrotation Yrotation
                        End Site
                        {
                            OFFSET -7.679609775543213 0.0 0.0
                        }
                    }
                }
            }
        }
    }
}
MOTION
Frames: 6
Frame Time: 0.03333333333333333
0.0003979988978244364 87.52346801757812 -0.0011839078506454825 3.126689318874932 -9.896283464731678 -34.098030106325744 -20.14643097289109 10.42477468742486 1.6810152508553833 -0.49380561069186696 11.626422722772697 1.9439164375299243 -7.951386703658792e-16 -9.655420026984722e-33 1.3914926731402886e-15 -17.579662676483725 15.5182897075613 1.7735582412819912 1.3361013740648262 7.327809618707173 0.6418220928248368 -1.1927080055488194e-15 6.724310375935788e-33 -6.460501696722771e-16 11.881472265996228 18.887356867481934 -7.762452121410727 -1.0520268539443477e-06 -1.0807508750382093e-07 -1.6706319284521434 -6.9810353656934625 8.211256266002888 -178.64692984583283 110.46581733327399 -51.36750537989046 168.76237664528108 -3.906890260044605e-06 4.0988498969343224e-06 62.53471194572738 0.0 0.0 0.0 -126.6853720429851 -17.39163422777796 174.16305566537108 -7.520790894669701e-07 7.97245114226379e-07 -37.565011310141706 4.174478019420866e-15 -2.896626008095417e-32 -7.951386703658792e-16
0.00040387402987107635 87.52342224121094 -0.0011446122080087662 4.202235271266587 -11.127704970502313 -34.72434460763817 -22.09736160671669 10.07690231603624 1.7633788572757845 -0.8945708079601945 12.089334368590483 2.2721271951170054 2.0000512913039782e-32 -3.9756933518293955e-16 5.7647553601526235e-15 -19.77911975249277 15.736954020042285 2.0784313588934245 1.2677525964019363 7.357629784282752 0.7789683075319372 -7.951386703658792e-16 -5.517382872562698e-33 7.951386703658792e-16 11.501873243169493 19.64701363956915 -8.371561612185214 2.9856413245789176e-06 -5.425542109143097e-07 -1.5090800816246128 -7.684879176233127 8.415018321542979 -178.4909775272482 109.52557940427408 -49.39131032944921 168.57341570445666 3.9869418299520615e-06 2.878064954888722e-06 60.169591335535486 0.0 0.0 0.0 -126.52406704851322 -16.90183587974124 173.62344732812912 7.291478925947536e-07 -6.699852632372314e-07 -36.02316128674594 -5.565970692561154e-15 -3.975693351829398e-16 3.1805546814635168e-15
0.0003569589462131262 87.52350616455078 -0.0011997927213087678 6.017660358998744 -11.211237919420604 -35.1028054144448 -24.182471755373275 8.865136239099831 1.6489133513307515 -1.308974049657289 12.561832264142357 2.5946708104697254 2.0000512913039782e-32 -3.975693351829397e-16 5.764755360152626e-15 -21.739301490309053 14.57777812605699 2.049961775028767 1.2174299821059762 7.4028435725571535 0.8553118301005683 3.9756933518293955e-16 -4.482873583957193e-33 -1.2921003393445536e-15 11.517661724839147 19.676665228749453 -8.97919966044408 3.227106412219603e-07 5.293033414299923e-07 -0.2124765334249287 -8.39937678863462 7.963538113510639 -179.53914383039503 109.76128290017124 -47.07020662129399 169.8579089236911 5.26680384488787e-07 1.8535278735464228e-06 59.42879551699252 6.3611093629270335e-15 0.0 0.0 -126.65678937326706 -16.845725475144935 173.05848712107925 -1.3510327486377532e-06 1.5806758061062208e-06 -35.718186334412835 -1.9878466759146984e-15 5.517382872562698e-32 -3.1805546814635176e-15
0.00039508758345618844 87.52349853515625 -0.001203163294121623 8.226631075151714 -10.97578551219381 -36.00325708078584 -26.26197323125018 6.567253086080406 1.3266749299089413 -1.832604072564019 12.852493947309986 2.9879380827366475 1.5902773407317584e-15 3.9756933518293955e-16 -1.7890620083232284e-15 -23.524799711359908 12.246560440918374 1.8496383477689755 0.274848411655857 7.624445364748395 1.0928803109956575 7.951386703658794e-16 1.9878466759146985e-16 1.093315671753084e-15 11.214641645913558 19.323231606152298 -9.190143200061835 2.387516651264359e-06 1.1788454183367323e-06 0.9842062319130434 -8.562858748081391 7.373604473966716 178.39832683471707 108.84263607274124 -48.94492938955966 170.26998838485744 -2.5314964684167907e-06 -2.727368510385576e-06 58.20536007152995 0.0 -6.3611093629270335e-15 0.0 -127.6640551906473 -18.546070419115246 172.15387997504 -2.700081837053186e-06 -9.680899326713935e-08 -35.73957176677833 4.174478019420867e-15 5.793252016190833e-32 1.5902773407317588e-15
0.0002843518741428852 87.52351379394531 -0.001261183526366949 10.506302154129651 -10.93167241467095 -37.34506349583672 -28.37619397869167 4.43732442713239 0.9049787657351178 -2.0421112728591986 12.68894022553124 3.028010232749813 -3.4483642953516864e-33 -3.9756933518293955e-16 -9.939233379573488e-16 -25.94692835632524 10.261748221648668 1.6242821898782147 0.08155056507297646 7.789171141987392 1.2046704978620175 -7.951386703658792e-16 -1.2414111463266072e-32 1.7890620083232284e-15 10.530488440939116 19.02984287990439 -9.59390817442914 2.2719413971372104e-06 6.900532087922202e-07 1.6723728850072461 -8.07747819789143 6.728600737315468 177.39939709361036 108.20746967836726 -46.92945954423862 170.59244457348956 -2.563041851304753e-06 9.61158021231213e-08 56.0045342407634 0.0 0.0 6.3611093629270335e-15 -128.44885584010524 -20.466476797069056 171.10032742673476 3.2249021094437806e-06 1.2279926003324237e-07 -35.07670579050952 7.95138670365879e-16 3.1805546814635164e-15 3.1805546814635164e-15
0.00020654579566325992 87.52366638183594 -0.0012946741189807653 12.586313945396512 -10.953304876656066 -39.67003001099272 -30.307934595426257 1.6373284636349874 0.3422550913080032 -2.7801112496253206 12.680162384559086 3.2593308493501816 0.0 0.0 6.162324695335563e-15 -27.730834902162176 7.41833304302256 1.1879227885064185 -0.42158758054741075 8.296745574426168 1.379954101154346 -7.951386703658791e-16 3.1805546814635168e-15 -3.0811623476677818e-15 10.02057058422361 19.422862887558296 -10.27191524749756 3.716216329546891e-07 -7.804427036902537e-07 3.293089896615453 -8.662401102539418 5.987479570508886 176.5899466228738 109.0447454578327 -43.215232972678514 171.88226477183608 5.312962810229039e-07 3.852453004944117e-06 56.651312263395944 0.0 0.0 6.3611093629270335e-15 -129.1836419792037 -21.261248668908994 169.34019735578465 8.052604142591573e-07 -2.130371428696975e-06 -37.133775631959935 8.74652537402467e-15 3.975693351829396e-15 -3.1805546814635168e-15
